HIERARCHY
ROOT reference
{
  OFFSET 0 0 0
  CHANNELS 6 Xposition Yposition Zposition Zrotation Xrotation Yrotation
  JOINT Hips
  {
    OFFSET -6.59748 73.7087 -28.9491
    CHANNELS 6 Xposition Yposition Zposition Zrotation Xrotation Yrotation
    JOINT Spine
    {
      OFFSET 0 7.59534 0
      CHANNELS 6 Xposition Yposition Zposition Zrotation Xrotation Yrotation
      JOINT Spine1
      {
        OFFSET 0 23.5015 0
        CHANNELS 6 Xposition Yposition Zposition Zrotation Xrotation Yrotation
        JOINT Neck
        {
          OFFSET 0 23.405 2.12773
          CHANNELS 6 Xposition Yposition Zposition Zrotation Xrotation Yrotation
          JOINT Head
          {
            OFFSET 0 12.9677 -1.85252
            CHANNELS 6 Xposition Yposition Zposition Zrotation Xrotation Yrotation
            End Site
            {
              OFFSET 0 23.1565 0
            }
          }
        }
        JOINT LeftShoulder
        {
          OFFSET 3.62206 22.4732 -0.132728
          CHANNELS 6 Xposition Yposition Zposition Zrotation Xrotation Yrotation
          JOINT LeftArm
          {
            OFFSET 8.17784 0 0
            CHANNELS 6 Xposition Yposition Zposition Zrotation Xrotation Yrotation
            JOINT LeftForeArm
            {
              OFFSET 30.104 0 0
              CHANNELS 6 Xposition Yposition Zposition Zrotation Xrotation Yrotation
              JOINT LeftHand
              {
                OFFSET 24.4664 0 0
                CHANNELS 6 Xposition Yposition Zposition Zrotation Xrotation Yrotation
                End Site
                {
                  OFFSET 13.8939 0 0
                }
              }
            }
          }
        }
        JOINT RightShoulder
        {
          OFFSET -3.6336 22.4732 -0.132728
          CHANNELS 6 Xposition Yposition Zposition Zrotation Xrotation Yrotation
          JOINT RightArm
          {
            OFFSET -8.17784 0 0
            CHANNELS 6 Xposition Yposition Zposition Zrotation Xrotation Yrotation
            JOINT RightForeArm
            {
              OFFSET -30.104 0 0
              CHANNELS 6 Xposition Yposition Zposition Zrotation Xrotation Yrotation
              JOINT RightHand
              {
                OFFSET -24.4664 0 0
                CHANNELS 6 Xposition Yposition Zposition Zrotation Xrotation Yrotation
                End Site
                {
                  OFFSET -13.8939 0 0
                }
              }
            }
          }
        }
      }
    }
    JOINT LeftUpLeg
    {
      OFFSET 9.26261 0 0
      CHANNELS 6 Xposition Yposition Zposition Zrotation Xrotation Yrotation
      JOINT LeftLeg
      {
        OFFSET 0 -35.4897 0
        CHANNELS 6 Xposition Yposition Zposition Zrotation Xrotation Yrotation
        JOINT LeftFoot
        {
          OFFSET 0 -38.2023 0
          CHANNELS 6 Xposition Yposition Zposition Zrotation Xrotation Yrotation
          JOINT LeftToeBase
          {
            OFFSET 0 -6.0207 13.8939
            CHANNELS 6 Xposition Yposition Zposition Zrotation Xrotation Yrotation
            End Site
            {
              OFFSET 0 0 3.70504
            }
          }
        }
      }
    }
    JOINT RightUpLeg
    {
      OFFSET -9.26261 0 0
      CHANNELS 6 Xposition Yposition Zposition Zrotation Xrotation Yrotation
      JOINT RightLeg
      {
        OFFSET 0 -35.4897 0
        CHANNELS 6 Xposition Yposition Zposition Zrotation Xrotation Yrotation
        JOINT RightFoot
        {
          OFFSET 0 -38.2023 0
          CHANNELS 6 Xposition Yposition Zposition Zrotation Xrotation Yrotation
          JOINT RightToeBase
          {
            OFFSET 0 -6.0207 13.8939
            CHANNELS 6 Xposition Yposition Zposition Zrotation Xrotation Yrotation
            End Site
            {
              OFFSET 0 0 3.70504
            }
          }
        }
      }
    }
  }
}
MOTION
Frames:	11
Frame Time:	0.004
0 0 0 0 0 -0 -10.1253 75.5082 -200.035 -1.46643 -1.0607 -3.04953 0 7.59534 0 -2.96269 -2.5878 0.390234 3.55271e-015 23.5015 0 0.725726 -0.759439 0.462106 0 23.405 2.12773 -4.28907 23.5621 -7.02184 0 12.9677 -1.85252 6.53602 6.35975 -7.04558 3.62206 22.4732 -0.132728 10.2748 3.06799 17.5581 8.17784 0 0 -18.3632 14.8189 -0.63744 30.104 0 0 19.5476 -12.1729 -56.3893 24.4664 0 0 -17.0872 -0.468366 -7.88605 -3.6336 22.4732 -0.132728 -5.90674 10.4046 15.2716 -8.17784 0 2.84217e-014 24.5847 12.5051 -8.11262 -30.104 0 0 -19.6046 -15.5525 44.6579 -24.4664 2.84217e-014 -2.84217e-014 15.837 -5.31173 16.291 9.26261 -1.42109e-014 0 4.64264 8.42702 -1.65538 -3.55271e-015 -35.4897 -2.84217e-014 -4.59895 4.34178 -1.19659 -3.55271e-015 -38.2023 -2.84217e-014 1.39188 -12.1483 15.3104 0 -6.0207 13.8939 -2.48481e-017 4.96962e-017 -0 -9.26261 1.42109e-014 0 -6.9415 -10.3738 -1.74811 7.10543e-015 -35.4897 0 -0.246095 32.4977 -11.6706 0 -38.2023 2.84217e-014 1.15119 -2.79537 10.4732 -7.10543e-015 -6.0207 13.8939 1.19271e-015 0 7.95139e-016 
0 0 0 0 0 -0 -10.1002 75.5095 -199.989 -1.51411 -1.17932 -3.12517 0 7.59534 -2.84217e-014 -2.99225 -2.40277 0.364416 -3.55271e-015 23.5015 0 0.746575 -0.711393 0.431869 0 23.405 2.12773 -4.35827 23.5384 -6.99958 0 12.9677 -1.85252 6.59558 6.48897 -7.02855 3.62206 22.4732 -0.132728 10.0732 3.11585 17.6286 8.17784 0 0 -18.4204 15.0661 -0.686905 30.104 0 -2.84217e-014 19.5846 -12.4124 -57.0134 24.4664 2.84217e-014 -2.84217e-014 -17.2388 -0.535008 -7.93172 -3.6336 22.4732 -0.132728 -5.79984 10.5475 15.3105 -8.17784 1.42109e-014 0 24.7457 12.7885 -8.04497 -30.104 0 -2.84217e-014 -20.0481 -15.7414 45.5634 -24.4664 1.42109e-014 0 16.2966 -5.06051 16.317 9.26261 0 0 4.657 8.57938 -1.6406 1.77636e-015 -35.4897 0 -4.59811 4.38125 -1.13069 0 -38.2023 0 1.76094 -11.9433 15.1621 0 -6.0207 13.8939 2.48481e-017 -2.48481e-017 3.18055e-015 -9.26261 1.42109e-014 0 -7.03611 -11.0684 -1.73747 0 -35.4897 0 0.00971398 33.8968 -11.7931 0 -38.2023 0 0.655069 -2.36679 10.4337 7.10543e-015 -6.0207 13.8939 -2.38542e-015 0 -0 
0 0 0 0 0 -0 -10.0814 75.5111 -199.95 -1.57491 -1.28651 -3.20321 3.55271e-015 7.59534 -2.84217e-014 -3.01977 -2.18621 0.328023 0 23.5015 -5.68434e-014 0.771587 -0.698679 0.390536 0 23.405 2.12773 -4.39718 23.4372 -6.96531 0 12.9677 -1.85252 6.59851 6.70122 -7.00322 3.62206 22.4732 -0.132728 9.89687 3.10863 17.7204 8.17784 -2.84217e-014 -2.84217e-014 -18.4901 15.3342 -0.69759 30.104 0 0 19.6144 -12.5318 -57.6996 24.4664 0 0 -17.1589 -0.492948 -7.91681 -3.6336 22.4732 -0.132728 -5.68845 10.7217 15.294 -8.17784 -1.42109e-014 0 24.8643 13.0136 -7.87191 -30.104 0 0 -20.443 -15.8362 46.515 -24.4664 1.42109e-014 0 16.4173 -4.78723 16.1758 9.26261 1.42109e-014 0 4.71362 8.69308 -1.63312 0 -35.4897 0 -4.64645 4.45476 -1.1134 -3.55271e-015 -38.2023 -2.84217e-014 1.73908 -11.9851 15.1883 0 -6.0207 13.8939 3.10601e-017 4.96962e-017 -0 -9.26261 2.84217e-014 -2.84217e-014 -7.07688 -11.7332 -2.0618 0 -35.4897 0 -0.0483757 35.1818 -11.7568 0 -38.2023 0 0.085277 -1.93174 10.73 0 -6.0207 13.8939 -3.97569e-016 3.18055e-015 -0 
0 0 0 0 0 -0 -10.0631 75.5129 -199.923 -1.61741 -1.35875 -3.30697 -3.55271e-015 7.59534 -2.84217e-014 -3.06479 -2.02199 0.304199 0 23.5015 0 0.813612 -0.680028 0.363152 0 23.405 2.12773 -4.44068 23.444 -6.95532 0 12.9677 -1.85252 6.58923 6.78633 -7.00185 3.62206 22.4732 -0.132728 9.82312 3.01607 17.7639 8.17784 -2.84217e-014 0 -18.7027 15.8064 -0.660057 30.104 0 2.84217e-014 19.7556 -12.8595 -58.202 24.4664 1.42109e-014 0 -17.3872 -0.59572 -8.05272 -3.6336 22.4732 -0.132728 -5.59588 10.8887 15.3518 -8.17784 0 2.84217e-014 24.9557 13.1966 -7.74487 -30.104 -1.42109e-014 0 -20.9029 -15.8623 47.323 -24.4664 -1.42109e-014 -2.84217e-014 16.7986 -4.36636 16.243 9.26261 -1.42109e-014 -2.84217e-014 4.74883 8.77093 -1.6208 -3.55271e-015 -35.4897 0 -4.70623 4.52348 -1.01676 0 -38.2023 0 1.75705 -12.0411 15.2014 -7.10543e-015 -6.0207 13.8939 -3.41661e-017 2.48481e-017 -0 -9.26261 0 0 -7.16644 -12.5086 -2.16324 0 -35.4897 0 0.118236 36.5754 -11.9089 0 -38.2023 0 -0.438365 -1.42373 10.8165 7.10543e-015 -6.0207 13.8939 3.57812e-015 3.18055e-015 -7.95139e-016 
0 0 0 0 0 -0 -10.0453 75.5146 -199.882 -1.68538 -1.45012 -3.38562 0 7.59534 -2.84217e-014 -3.06936 -1.86786 0.267106 0 23.5015 0 0.836693 -0.621946 0.321911 -3.55271e-015 23.405 2.12773 -4.50137 23.4332 -6.92138 -7.10543e-015 12.9677 -1.85252 6.57675 6.89458 -6.9775 3.62206 22.4732 -0.132728 9.57925 3.14079 17.7972 8.17784 0 2.84217e-014 -18.7763 15.8649 -0.689228 30.104 2.84217e-014 0 19.7089 -13.009 -58.8522 24.4664 -1.42109e-014 0 -17.4281 -0.624528 -8.04558 -3.6336 22.4732 -0.132728 -5.49178 11.0554 15.4257 -8.17784 1.42109e-014 0 25.0361 13.3345 -7.62678 -30.104 1.42109e-014 0 -21.3309 -15.8337 48.1871 -24.4664 0 0 17.0601 -3.91007 16.2307 9.26261 1.42109e-014 -2.84217e-014 4.7814 8.90137 -1.57002 1.77636e-015 -35.4897 0 -4.76458 4.59334 -0.580739 0 -38.2023 2.84217e-014 1.74741 -12.159 14.955 7.10543e-015 -6.0207 13.8939 6.21202e-018 4.96962e-017 1.59028e-015 -9.26261 0 0 -7.22761 -13.1913 -2.56741 0 -35.4897 0 0.0377272 37.8213 -11.8617 0 -38.2023 0 -0.997149 -0.911248 11.116 0 -6.0207 13.8939 7.95139e-016 3.18055e-015 -1.59028e-015 
0 0 0 0 0 -0 -10.0265 75.5161 -199.842 -1.75213 -1.52798 -3.44947 -3.55271e-015 7.59534 0 -3.05609 -1.72316 0.219636 0 23.5015 0 0.825418 -0.558838 0.26985 0 23.405 2.12773 -4.56901 23.6342 -6.83614 1.42109e-014 12.9677 -1.85252 6.6416 6.65816 -6.88322 3.62206 22.4732 -0.132728 9.24482 3.26604 17.8184 8.17784 -2.84217e-014 -2.84217e-014 -18.5143 15.1543 -0.729889 30.104 0 -2.84217e-014 18.9522 -12.3703 -59.9551 24.4664 1.42109e-014 -2.84217e-014 -17.1372 -0.218253 -7.84404 -3.6336 22.4732 -0.132728 -5.37158 11.2312 15.5018 -8.17784 -1.42109e-014 0 25.1253 13.5196 -7.49183 -30.104 1.42109e-014 0 -21.8152 -15.8549 48.9836 -24.4664 0 0 17.2444 -3.49879 16.1991 9.26261 1.42109e-014 0 4.82816 9.00983 -1.55712 0 -35.4897 0 -4.78741 4.62031 -0.493063 0 -38.2023 0 1.73317 -12.1879 14.9245 7.10543e-015 -6.0207 13.8939 3.10601e-017 0 -0 -9.26261 0 0 -7.31355 -13.9076 -2.93822 0 -35.4897 0 0.0258877 39.1198 -11.6374 -1.42109e-014 -38.2023 -2.84217e-014 -1.60787 -0.395065 11.1119 0 -6.0207 13.8939 -1.59028e-015 3.18055e-015 -1.59028e-015 
0 0 0 0 0 -0 -10.0352 75.5164 -199.807 -1.87483 -1.7189 -3.46362 0 7.59534 0 -3.03062 -1.37906 0.142389 3.55271e-015 23.5015 0 0.831513 -0.578572 0.182959 3.55271e-015 23.405 2.12773 -4.50248 23.453 -6.76787 -1.42109e-014 12.9677 -1.85252 6.50077 6.95165 -6.82787 3.62206 22.4732 -0.132728 9.15561 3.25717 17.9726 8.17784 -2.84217e-014 -2.84217e-014 -18.7138 15.8484 -0.82907 30.104 -1.42109e-014 0 19.4384 -12.8325 -60.2381 24.4664 -2.84217e-014 0 -17.5542 -0.284617 -7.98195 -3.6336 22.4732 -0.132728 -5.30654 11.7274 15.5208 -8.17784 -1.42109e-014 -2.84217e-014 25.1229 13.3978 -7.11821 -30.104 -1.42109e-014 0 -22.1552 -15.9011 49.8372 -24.4664 0 0 17.2453 -3.2228 15.9285 9.26261 0 0 4.98358 9.19895 -1.50423 -1.77636e-015 -35.4897 0 -4.85204 4.69133 -0.557784 -3.55271e-015 -38.2023 -2.84217e-014 1.78229 -12.269 14.9224 -7.10543e-015 -6.0207 13.8939 -1.86361e-017 -2.48481e-017 3.18055e-015 -9.26261 0 0 -7.32099 -14.5023 -3.11609 -7.10543e-015 -35.4897 -2.84217e-014 0.145709 40.4087 -11.8313 0 -38.2023 0 -2.28545 0.124685 11.3466 -7.10543e-015 -6.0207 13.8939 -2.38542e-015 0 -7.95139e-016 
0 0 0 0 0 -0 -10.0202 75.5289 -199.759 -1.95644 -1.78989 -3.52779 3.55271e-015 7.59534 0 -3.02916 -1.2528 0.101782 0 23.5015 0 0.892795 -0.507354 0.139249 0 23.405 2.12773 -4.57118 23.4263 -6.76385 0 12.9677 -1.85252 6.45005 7.08018 -6.83871 3.62206 22.4732 -0.132728 8.81925 3.30774 17.9354 8.17784 -2.84217e-014 0 -18.7053 15.9679 -0.819814 30.104 0 0 19.5345 -12.9405 -60.7734 24.4664 0 0 -17.839 -0.201711 -7.92358 -3.6336 22.4732 -0.132728 -5.23992 11.9085 15.5968 -8.17784 -2.84217e-014 0 25.2112 13.5655 -6.97757 -30.104 1.42109e-014 0 -22.7573 -15.9011 50.5315 -24.4664 -1.42109e-014 0 17.648 -2.7106 15.8659 9.26261 0 -2.84217e-014 5.04214 9.32624 -1.45776 0 -35.4897 0 -4.858 4.68284 -0.497482 0 -38.2023 0 1.85938 -12.2734 14.8681 -7.10543e-015 -6.0207 13.8939 -1.55301e-017 2.48481e-017 -1.59028e-015 -9.26261 1.42109e-014 2.84217e-014 -7.38819 -15.1905 -3.42433 -7.10543e-015 -35.4897 0 0.154989 41.6233 -11.8774 0 -38.2023 0 -2.84567 0.625306 11.8227 -7.10543e-015 -6.0207 13.8939 -1.98785e-015 3.18055e-015 1.59028e-015 
0 0 0 0 0 -0 -10.0056 75.542 -199.712 -2.03858 -1.85077 -3.58822 3.55271e-015 7.59534 0 -2.96922 -1.08983 0.03432 -3.55271e-015 23.5015 0 0.826206 -0.527123 0.067334 0 23.405 2.12773 -4.60748 23.4664 -6.7249 0 12.9677 -1.85252 6.45318 7.16229 -6.80687 3.62206 22.4732 -0.132728 8.65211 3.43017 18.0184 8.17784 2.84217e-014 2.84217e-014 -18.7955 16.1268 -0.912038 30.104 1.42109e-014 0 19.6971 -13.0618 -61.1958 24.4664 0 0 -18.1271 -0.095589 -7.99293 -3.6336 22.4732 -0.132728 -5.10861 12.1209 15.7505 -8.17784 -1.42109e-014 0 25.3126 13.8781 -6.87927 -30.104 0 0 -23.1409 -16.0913 51.2028 -24.4664 0 0 17.6219 -2.55551 15.8426 9.26261 -1.42109e-014 2.84217e-014 5.0993 9.44477 -1.40405 0 -35.4897 0 -4.85831 4.66767 -0.441711 3.55271e-015 -38.2023 0 1.79093 -12.2751 14.8226 0 -6.0207 13.8939 -2.32951e-017 -1.2424e-017 -3.18055e-015 -9.26261 1.42109e-014 0 -7.45892 -15.9289 -3.74282 0 -35.4897 -2.84217e-014 0.143332 42.8899 -11.761 0 -38.2023 0 -3.20824 1.13663 12.2923 0 -6.0207 13.8939 2.38542e-015 -6.36111e-015 -7.95139e-016 
0 0 0 0 0 -0 -9.99067 75.5586 -199.659 -2.12498 -1.90327 -3.66412 7.10543e-015 7.59534 2.84217e-014 -2.93777 -0.991623 0.010238 0 23.5015 -2.84217e-014 0.836685 -0.443465 0.038221 0 23.405 2.12773 -4.70294 23.5012 -6.70727 0 12.9677 -1.85252 6.54482 7.2093 -6.79213 3.62206 22.4732 -0.132728 8.53694 3.44467 18.0441 8.17784 2.84217e-014 0 -18.998 16.449 -1.01666 30.104 0 -2.84217e-014 19.8119 -13.3278 -61.5712 24.4664 1.42109e-014 0 -18.3455 -0.182858 -8.054 -3.6336 22.4732 -0.132728 -4.99215 12.2686 15.8008 -8.17784 -1.42109e-014 0 25.3611 14.0978 -6.74601 -30.104 0 0 -23.4254 -16.0982 51.9832 -24.4664 0 -2.84217e-014 17.4404 -2.28374 15.5875 9.26261 -1.42109e-014 0 5.15061 9.57837 -1.32806 1.77636e-015 -35.4897 0 -4.83565 4.60241 -0.250076 -1.77636e-015 -38.2023 2.84217e-014 2.03001 -11.9961 14.4376 0 -6.0207 13.8939 -1.86361e-017 0 -1.59028e-015 -9.26261 -1.42109e-014 2.84217e-014 -7.52091 -16.6639 -4.12754 0 -35.4897 0 0.0433551 44.0752 -11.58 -1.42109e-014 -38.2023 0 -3.19622 1.75291 12.7316 0 -6.0207 13.8939 -8.82781e-032 3.18055e-015 1.59028e-015 
0 0 0 0 0 -0 -9.97939 75.5733 -199.602 -2.21644 -1.97691 -3.72734 0 7.59534 0 -2.86908 -0.836479 -0.056607 3.55271e-015 23.5015 2.84217e-014 0.790631 -0.412911 -0.032523 -3.55271e-015 23.405 2.12773 -4.79139 23.4656 -6.64367 0 12.9677 -1.85252 6.56905 7.37496 -6.73796 3.62206 22.4732 -0.132728 8.32505 3.50915 18.0956 8.17784 -2.84217e-014 0 -19.0871 16.6635 -1.08203 30.104 0 0 20.0072 -13.4845 -61.9392 24.4664 0 0 -18.7668 -0.103849 -8.04919 -3.6336 22.4732 -0.132728 -4.82586 12.2491 15.9771 -8.17784 0 -2.84217e-014 25.4563 14.4369 -6.76992 -30.104 0 0 -23.3659 -16.2386 52.9204 -24.4664 -1.42109e-014 0 16.9021 -2.35741 15.1585 9.26261 -1.42109e-014 0 5.20742 9.74119 -1.24119 0 -35.4897 0 -4.81396 4.54091 -0.143035 -1.77636e-015 -38.2023 -2.84217e-014 1.97588 -11.9798 14.261 0 -6.0207 13.8939 3.10601e-017 4.96962e-017 -3.18055e-015 -9.26261 1.42109e-014 0 -7.604 -17.3669 -4.39867 0 -35.4897 0 0.0855787 45.3028 -11.5526 0 -38.2023 0 -3.08298 2.14294 13.1759 0 -6.0207 13.8939 -1.59028e-015 0 7.95139e-016 
